<svg xmlns="http://www.w3.org/2000/svg" viewBox="-100 -400 800 800">
        <g transform="rotate(180 370 275)">
        <path id="port" stroke="red!important" stroke-width="3"
            d="M 1.824 145.084 L 653.178 148.206 L 650.68 203.787 L 645.684 209.407 C 645.684 209.407 516.535 247.432 384.642 247.545 C 147.28 247.749 -1.249 148.831 1.824 145.084Z" />
        <use href="#port" transform="translate(0 -505) scale(1 -1)" transform-origin="400 400">
        </use>
        </g>
    <style>
        svg {
            xwidth: 100%;
            height: auto;
            background: pink;
        }

        path {
            fill: none;
            stroke: black;
            stroke-linecap: round;
            stroke-linejoin: round;
        }

        path:nth-of-type(12) {
            stroke: #f00;
        }
    </style>
    <g transform="rotate(0)" transform-origin="400 400">
        <g transform="translate(0 0)">
            <path stroke-width="3" class="outline"
                d="m95 160v-60l1-23-1-22c0-4 1-6 4-7l12-2 66-15 50-11 56-8c13-2 26-2 40-3l33-1 37 1 39 2 48 5a931 931 0 01168 49c10 3 19 8 29 12l51 23c4 2 7 4 13 7 2 1 2 1 2 3 0 3-2 4-2 4l-37 18-42 19-34 13a575 575 0 01-170 39c-34 4-68 4-101 4l-42-3-33-3a594 594 0 01-94-17l-33-7c-19-4-38-10-57-16l-3-1" />
            <path stroke-width="3" classs="deckline"
                d="m95 109-1 40c0 5 2 6 6 7l58 16 64 13 33 6 32 3c35 3 69 6 104 5 19-1 39-1 58-3l26-3 9-1m241-86a1121 1121 0 00-223-79l-40-6-38-3-40-3h-34a1153 1153 0 00-75 5c-14 2-28 3-41 6-16 2-31 5-47 9l-57 12c-11 3-22 7-34 9m631 59c-7 1-13 5-19 8a951 951 0 01-219 69h-5" />
            <path stroke-width="3" class="cockpit"
                d="M624 110c0-2 1-3 3-3h8c0 4-5 6-8 4-7-3-15-1-22-2h-6c-4-1-7 1-10 3-19 13-40 22-61 32-10 1-18 7-27 10l-27 9a535 535 0 0 1-75 12l-38 1c-25 1-50-1-76-3l-46-5-29-4c-4 0-6-2-6-6l2-48M206 105c-1-19 1-37 1-55l31-4 33-3a453 453 0 0 1 83-4 435 435 0 0 1 110 11 626 626 0 0 1 88 34c13 6 25 13 37 21l5 4" />
            <path stroke-width="3" class="tiller" d="M205 109h-23l-17-1H93c-6-1-13 2-20-2l-3-1-34-1h-2" />
            <path stroke-width="3" d="M399 154v-37l1-7c-1-5 1-5 4-4h98l20 1m-153-1h-75l-2 1c2 3 4 2 6 2h30l41 1" />
            <path stroke-width="3" d="M401 110h117c4 0 6 3 10 3h4M370 40v135" />
            <path stroke-width="2" d="m400 42-1 58c0 2-1 4 2 6" />
            <path stroke-width="3" class="bench" d="M249 46v59m-30-55-1 115m182-10-1 16" />
            <path stroke-width="2" class="waterkering" d="M575 105c2 0 2 3 3 5-15 10-30 21-47 28-2 2-4 4-7 4" />
            <path stroke-width="3" class="frontcenterline" d="m732 111-5-1h-39l-49-1m-547 0v50" />
            <path stroke-width="4" class="siderail" d="m335 191 18 1h30" />
            <path stroke-width="3" class="do" d="m577 109-43-1m-270-2c-5-2-9-1-13-1l-2 2-1 6-1 40v16" />
            <path stroke-width="3" class="siderail" d="M386 21h-20l-23-1h-6" />
            <path stroke-width="1" class="grootschoot" d="M293 107c-8-2-16-2-23 0h-5" />
            <path stroke-width="3" d="M293 109c-8 0-15 1-22-1" />
            <path stroke-width="4" class="nagelbank" d="m522 74 2 2v27l-1 8" />
            <path stroke-width="2" class="mast" d="M525 103c8 0 9 1 7 9" />
            <path stroke-width="4" class="clete rear port" d="M179 44c0 1 0 3-3 3-1 0-3-1-4 1" />
            <path stroke-width="3" d="M524 113c-2 4-1 8-1 12v19m-301-37" />
        </g>
    </g>
</svg>