<svg xmlns="http://www.w3.org/2000/svg" xmlns:xlink="http://www.w3.org/1999/xlink" version="1.1" id="Layer_1" x="0px" y="0px" width="100%" viewBox="0 0 791 215" enable-background="new 0 0 791 215" xml:space="preserve">
<path fill="none" opacity="1.000000" stroke="#000000" stroke-linecap="round" stroke-linejoin="round" stroke-width="3.000000" d=" M95.000000,102.000000   C95.166664,101.333336 95.462883,100.670006 95.480186,99.999489   C95.678001,92.333626 96.027046,84.664589 95.944931,77.000587   C95.864540,69.497879 95.545586,61.981987 94.911285,54.507530   C94.589676,50.717770 96.143005,49.211479 99.492706,48.467159   C103.357422,47.608402 107.144844,46.405369 111.003609,45.515656   C132.829468,40.483273 154.666611,35.499737 176.500015,30.500092   C193.395020,26.631298 210.343964,23.053600 227.497223,20.481436   C245.842896,17.730463 264.117920,14.446087 282.516388,12.130081   C295.765656,10.462254 309.158875,9.875854 322.502411,9.038656   C333.490540,8.349243 344.498199,7.648419 355.500458,7.592392   C368.165100,7.527901 380.885712,7.566899 393.485413,8.667165   C406.316437,9.787634 419.184967,10.132920 432.015747,11.331473   C448.016479,12.826143 464.058716,13.981706 479.992401,16.058325   C512.044067,20.235586 543.335022,27.370579 574.107239,37.679890   C599.132935,46.063995 623.875061,55.092922 648.472229,64.572098   C658.141846,68.298561 667.386475,73.120033 677.024841,76.937218   C694.329651,83.790565 710.691895,92.617180 727.577637,100.330070   C732.026855,102.362312 735.443787,106.326622 740.504089,106.967827   C742.452942,107.214767 743.008301,108.198456 743.029358,109.999657   C743.058838,112.521935 741.268921,113.715294 739.476501,114.442108   C726.806824,119.579742 714.955505,126.425186 702.499512,131.998886   C688.334961,138.337051 674.265442,144.901123 659.968323,150.924835   C648.793030,155.633270 637.316895,159.624390 626.003601,164.009293   C605.871094,171.812393 585.356934,178.462448 564.487732,183.953262   C543.891968,189.372131 523.112427,193.906036 502.019592,197.128311   C486.550903,199.491425 471.067169,201.419830 455.516785,203.150909   C421.910339,206.891937 388.215607,207.287079 354.501801,206.859299   C340.659515,206.683655 326.811157,205.448273 312.975281,204.297134   C301.956360,203.380356 290.984314,202.018372 280.020721,200.811691   C266.804504,199.357071 253.595932,197.624451 240.450760,195.275604   C229.282715,193.280075 218.139633,191.145065 207.004761,188.975525   C199.979218,187.606689 192.986206,186.061111 186.003189,184.485855   C175.157791,182.039337 164.337646,179.481125 153.499054,177.004150   C134.236862,172.602127 115.388351,166.734497 96.464066,161.121140   C95.030434,160.695892 93.995377,159.567886 92.500000,159.500000  "/>
<path fill="none" opacity="1.000000" stroke="#000000" stroke-linecap="round" stroke-linejoin="round" stroke-width="3.000000" d=" M94.999992,109.000000   C94.833328,122.500000 94.882454,136.008148 94.372879,149.495193   C94.213081,153.724747 96.185608,155.175964 99.503708,155.984802   C119.262909,160.801453 138.588837,167.209564 158.479630,171.592438   C179.455978,176.214523 200.368149,181.116531 221.500610,184.996658   C232.497116,187.015701 243.447998,189.380768 254.514709,190.892273   C265.447357,192.385422 276.508698,192.913254 287.498383,194.016098   C321.914337,197.469879 356.399353,200.061127 390.994873,198.853241   C410.337097,198.177917 429.727112,197.951355 449.015594,195.629517   C457.643951,194.590866 466.388214,194.392059 474.995789,192.974442   C475.860565,192.832001 476.666656,192.333328 477.500000,192.000000  "/>
<path fill="none" opacity="1.000000" stroke="#000000" stroke-linecap="round" stroke-linejoin="round" stroke-width="3.000000" d=" M725.000000,106.000000   C710.515076,98.933548 695.869019,92.251030 681.082458,85.810654   C664.691467,78.671394 648.118835,72.046478 631.499939,65.500229   C616.040283,59.410606 600.399841,53.877823 584.548767,48.846310   C573.893433,45.464046 563.245544,42.099350 552.526489,38.911034   C535.897827,33.964973 519.201050,29.474243 502.002594,26.982063   C488.822876,25.072222 475.709625,22.626245 462.487793,21.106255   C449.543884,19.618214 436.469116,19.291468 423.508636,17.918612   C410.360748,16.525908 397.146515,16.392118 383.983154,15.183418   C372.564148,14.134890 360.988678,14.269698 349.502777,14.597160   C333.991608,15.039382 318.488129,15.994869 303.004364,17.063438   C293.480713,17.720686 283.981201,18.849728 274.504486,20.035942   C260.986816,21.727980 247.444885,23.337435 234.014374,25.585831   C218.286270,28.218861 202.612152,31.243988 187.013947,34.565472   C167.955383,38.623802 149.015411,43.235813 129.994202,47.473991   C118.627571,50.006634 107.531410,53.675148 96.000000,55.500000  "/>
<path fill="none" opacity="1.000000" stroke="#000000" stroke-linecap="round" stroke-linejoin="round" stroke-width="3.000000" d=" M726.500000,114.500000   C719.593079,115.804443 713.765869,119.753822 707.565613,122.640862   C687.891724,131.801636 667.658875,139.564484 647.474060,147.433487   C623.500916,156.779388 599.175720,165.152359 574.508789,172.529404   C546.455994,180.919052 518.061401,187.690536 489.001923,191.514511   C487.320496,191.735764 485.678345,192.347549 483.997162,192.456192   C481.671326,192.606491 479.098938,192.995880 478.000000,190.000000  "/>
<path fill="none" opacity="1.000000" stroke="#000000" stroke-linecap="round" stroke-linejoin="round" stroke-width="3.000000" d=" M623.500000,109.500000   C623.549561,107.526131 624.697021,106.869698 626.500000,107.000015   C629.331116,107.204651 632.213806,106.531845 635.000183,107.497055   C634.507263,110.589859 630.191162,113.244675 626.594421,111.323296   C619.519470,107.543877 612.183289,109.688530 604.999451,109.005493   C603.001831,108.815567 601.018066,109.099983 598.983154,108.564056   C595.019165,107.520103 591.553894,109.503632 588.545105,111.565773   C569.537598,124.592758 548.631348,134.031631 528.000000,144.000000   C518.135498,144.709656 510.066620,150.545044 501.098511,153.773621   C492.267731,156.952744 483.445831,160.199020 474.474182,162.914734   C463.518524,166.231033 452.304993,168.711014 440.988800,170.426041   C427.244873,172.508987 413.443146,173.934235 399.532379,174.945358   C386.812744,175.869919 374.165436,175.575012 361.497925,175.925339   C336.097046,176.627777 310.785034,174.736969 285.499237,172.508698   C269.836700,171.128448 254.148605,170.012375 238.506638,168.434235   C228.804199,167.455322 219.154510,165.913879 209.506439,164.457397   C206.013229,163.930054 204.246002,162.405258 204.327057,157.996826   C204.624252,141.828430 206.209396,125.688164 205.500000,109.500000  "/>
<path fill="none" opacity="1.000000" stroke="#000000" stroke-linecap="round" stroke-linejoin="round" stroke-width="3.000000" d=" M205.500000,104.500000   C205.026093,86.306526 206.547165,68.167969 206.610764,49.644901   C217.334000,48.839230 227.603882,47.246136 237.975464,46.245701   C248.980392,45.184181 260.027710,43.932327 271.029816,42.786095   C280.131958,41.837803 289.332153,40.980396 298.503723,40.587154   C316.991180,39.794495 335.499664,39.126781 354.000092,39.109608   C370.999634,39.093826 388.048492,39.367157 404.987366,40.664852   C424.859344,42.187252 444.612854,45.047718 464.006378,49.974911   C482.073456,54.565090 499.291992,61.431190 516.578125,68.303429   C528.617432,73.089745 540.311096,78.505165 551.995667,84.009186   C564.776184,90.029449 576.786438,97.452560 588.972351,104.547455   C590.672424,105.537247 592.000000,107.166679 593.500000,108.500008  "/>
<path fill="none" opacity="1.000000" stroke="#000000" stroke-linecap="round" stroke-linejoin="round" stroke-width="2.000000" d=" M204.500000,109.000000   C197.189224,107.840942 189.832367,108.724197 182.499191,108.530960   C176.669907,108.377350 170.833206,108.524567 165.000015,108.495705   C140.999710,108.376961 116.976517,109.271751 93.011803,107.806938   C86.541138,107.411430 79.606194,109.659973 73.451012,105.573799   C72.641228,105.036209 71.165855,105.528610 70.000122,105.495567   C58.499916,105.169563 46.999767,104.840736 35.500591,104.481133   C34.829365,104.460144 34.166668,104.166672 33.500000,104.000000  "/>
<path fill="none" opacity="1.000000" stroke="#000000" stroke-linecap="round" stroke-linejoin="round" stroke-width="2.000000" d=" M204.500000,105.000000   C197.000000,106.518600 189.503494,104.833046 181.999100,104.901810   C173.002914,104.984230 164.002518,104.189049 154.999451,104.031715   C139.001419,103.752136 122.981133,104.075600 107.007439,103.338737   C98.154160,102.930344 89.330956,103.271736 80.497917,103.126068   C78.508583,103.093262 75.797661,102.981041 74.500000,105.500000  "/>
<path fill="none" opacity="1.000000" stroke="#000000" stroke-linecap="round" stroke-linejoin="round" stroke-width="3.000000" d=" M399.000000,153.500000   C400.443451,141.166672 398.153229,128.832047 399.015991,116.501122   C399.180389,114.151794 399.970062,111.342354 399.666748,109.556610   C398.882965,104.942673 401.347534,105.459755 403.999817,105.510307   C411.167023,105.646889 418.333038,105.960739 425.500061,105.977074   C451.166565,106.035576 476.833405,105.967155 502.499939,106.022858   C509.000275,106.036964 515.500000,106.333336 522.000000,106.500000  "/>
<path fill="none" opacity="1.000000" stroke="#000000" stroke-linecap="round" stroke-linejoin="round" stroke-width="3.000000" d=" M369.000000,106.000000   C343.833344,106.000000 318.666626,105.993866 293.500153,106.057343   C293.115906,106.058304 292.733826,106.919930 292.268951,107.478096   C293.663422,109.677490 295.741364,108.964157 297.500153,108.973541   C307.666504,109.027771 317.833832,108.937416 327.999878,109.015350   C341.667023,109.120110 355.333344,109.333336 369.000000,109.500000  "/>
<path fill="none" opacity="1.000000" stroke="#000000" stroke-linecap="round" stroke-linejoin="round" stroke-width="3.000000" d=" M400.500000,109.500000   C413.666656,109.500000 426.843231,109.172188 439.997894,109.569412   C465.999542,110.354576 492.000336,109.838783 518.000244,109.899704   C521.845703,109.908707 524.316528,113.227966 527.997986,112.971115   C529.163330,112.889816 530.462952,113.574150 531.500000,112.500000  "/>
<path fill="none" opacity="1.000000" stroke="#000000" stroke-linecap="round" stroke-linejoin="round" stroke-width="3.000000" d=" M370.499969,40.000000   C370.333313,85.000000 370.166656,130.000000 369.999969,175.000000  "/>
<path fill="none" opacity="1.000000" stroke="#000000" stroke-linecap="round" stroke-linejoin="round" stroke-width="2.000000" d=" M400.000000,41.500000   C399.666656,61.000000 399.315674,80.499741 399.027679,100.000412   C398.999359,101.918373 398.288727,104.133377 400.500000,105.500000  "/>
<path fill="none" opacity="1.000000" stroke="#000000" stroke-linecap="round" stroke-linejoin="round" stroke-width="3.000000" d=" M248.500000,46.000000   C249.301270,47.603207 249.000809,49.326427 248.985962,50.999874   C248.842682,67.166748 248.641800,83.333176 248.537689,99.500244   C248.527039,101.154755 247.941299,102.922539 249.000000,104.500000  "/>
<path fill="none" opacity="1.000000" stroke="#000000" stroke-linecap="round" stroke-linejoin="round" stroke-width="3.000000" d=" M219.000000,49.500000   C218.591873,87.999352 217.557968,126.493286 218.000000,165.000000  "/>
<path fill="none" opacity="1.000000" stroke="#000000" stroke-linecap="round" stroke-linejoin="round" stroke-width="2.000000" d=" M574.500000,104.500000   C577.200562,105.357224 577.060669,108.022003 578.270630,110.308578   C563.101379,120.481171 547.988892,130.623016 531.477905,138.453445   C529.061279,139.599564 527.094299,141.985809 524.000000,141.500000  "/>
<path fill="none" opacity="1.000000" stroke="#000000" stroke-linecap="round" stroke-linejoin="round" stroke-width="3.000000" d=" M731.500000,110.500000   C730.000000,110.333336 728.502441,110.050522 726.999573,110.018867   C717.333679,109.815277 707.667175,109.607643 697.999756,109.531235   C694.501282,109.503586 690.996948,110.023277 687.500488,109.967575   C671.166016,109.707314 654.833313,109.333328 638.500000,108.999992  "/>
<path fill="none" opacity="1.000000" stroke="#000000" stroke-linecap="round" stroke-linejoin="round" stroke-width="3.000000" d=" M92.000000,109.000000   C91.754395,123.665771 92.505219,138.340820 91.548592,153.003174   C91.430931,154.806717 90.982674,156.744003 92.000000,158.500000  "/>
<path fill="none" opacity="1.000000" stroke="#000000" stroke-linecap="round" stroke-linejoin="round" stroke-width="4.000000" d=" M334.500000,191.000000   C340.810822,192.021744 347.167236,191.312500 353.499969,191.500671   C363.164612,191.787842 372.849518,190.894318 382.500000,192.000000  "/>
<path fill="none" opacity="1.000000" stroke="#000000" stroke-linecap="round" stroke-linejoin="round" stroke-width="3.000000" d=" M576.500000,108.500000   C562.174500,107.660904 547.834045,108.106094 533.500000,108.000000  "/>
<path fill="none" opacity="1.000000" stroke="#000000" stroke-linecap="round" stroke-linejoin="round" stroke-width="3.000000" d=" M263.500000,106.000000   C259.471802,103.935928 255.156403,105.469170 250.998779,105.011086   C249.587677,104.855621 249.082809,105.596153 248.958389,106.996300   C248.794144,108.844666 248.074066,110.662064 248.041382,112.500732   C247.798447,126.166046 247.694443,139.833755 247.485748,153.499786   C247.406830,158.667801 247.166672,163.833328 247.000000,169.000000  "/>
<path fill="none" opacity="1.000000" stroke="#000000" stroke-linecap="round" stroke-linejoin="round" stroke-width="2.000000" d=" M94.000000,66.500000   C93.465698,78.327675 91.710022,90.120941 93.000000,102.000000  "/>
<path fill="none" opacity="1.000000" stroke="#000000" stroke-linecap="round" stroke-linejoin="round" stroke-width="3.000000" d=" M385.500000,20.500000   C379.024719,21.630995 372.470703,21.202421 366.006714,20.869724   C358.328552,20.474537 350.666016,20.690010 343.000458,20.483459   C340.830872,20.425005 338.666656,20.166666 336.500000,20.000000  "/>
<path fill="none" opacity="1.000000" stroke="#000000" stroke-linecap="round" stroke-linejoin="round" stroke-width="4.000000" d=" M292.500000,106.500000   C285.000000,104.944427 277.469482,104.817726 270.022766,106.595337   C268.291260,107.008667 266.656311,106.729881 265.000000,107.000000  "/>
<path fill="none" opacity="1.000000" stroke="#000000" stroke-linecap="round" stroke-linejoin="round" stroke-width="3.000000" d=" M292.500000,108.500000   C285.151703,108.991798 277.792969,109.942642 270.500000,108.000000  "/>
<path fill="none" opacity="1.000000" stroke="#000000" stroke-linecap="round" stroke-linejoin="round" stroke-width="3.000000" d=" M399.500000,157.500000   C399.333313,163.000000 399.166656,168.500000 399.000000,174.000000  "/>
<path fill="none" opacity="1.000000" stroke="#000000" stroke-linecap="round" stroke-linejoin="round" stroke-width="4.000000" d=" M521.500000,73.500000   C523.103760,73.583656 523.455994,74.483147 523.540955,75.997704   C524.045532,84.994560 522.753113,93.985146 523.659912,103.034081   C523.854187,104.972885 522.734497,107.946907 522.500000,110.500000  "/>
<path fill="none" opacity="1.000000" stroke="#000000" stroke-linecap="round" stroke-linejoin="round" stroke-width="3.000000" d=" M249.000000,108.500000   C253.858109,109.051933 258.725250,109.865738 263.500000,108.000000  "/>
<path fill="none" opacity="1.000000" stroke="#000000" stroke-linecap="round" stroke-linejoin="round" stroke-width="2.000000" d=" M524.500000,102.500000   C532.830750,102.500000 533.762207,103.617760 532.000000,111.500000  "/>
<path fill="none" opacity="1.000000" stroke="#000000" stroke-linecap="round" stroke-linejoin="round" stroke-width="4.000000" d=" M179.000000,43.500000   C179.281677,45.429176 178.680710,46.551186 176.499695,46.524010   C174.950378,46.504700 173.253601,46.057854 172.000000,47.500000  "/>
<path fill="none" opacity="1.000000" stroke="#000000" stroke-linecap="round" stroke-linejoin="round" stroke-width="3.000000" d=" M524.000000,113.000000   C522.493774,116.775093 523.299683,120.621666 523.407593,124.502571   C523.583435,130.826370 523.166687,137.166672 523.000000,143.500000  "/>
<path fill="none" opacity="1.000000" stroke="#000000" stroke-linecap="round" stroke-linejoin="round" stroke-width="3.000000" d=" M221.500000,107.000000   C216.523102,107.839920 211.121506,105.494659 206.500000,109.000000  "/>
<path fill="none" opacity="1.000000" stroke="#000000" stroke-linecap="round" stroke-linejoin="round" stroke-width="2.000000" d=" M728.000000,102.000000   C728.116211,105.275223 731.661865,106.835739 732.000000,110.000000  "/>
</svg>