<svg xmlns="http://www.w3.org/2000/svg" viewBox="0 0 800 800">
    <defs>
        <linearGradient id="waves" x1="50%" x2="50%" y1="0%" y2="100%" gradientTransform="rotate(270)">
            <stop offset="0%" stop-color="lightblue" />
            <stop offset="50%" stop-color="cornflowerblue" />
            <stop offset="100%" stop-color="lightblue" />
        </linearGradient>
        <g fill="none" stroke="url(#waves)"  stroke-linecap="round" stroke-width="2"
            transform="rotate(45) translate(0 50)">
            <path
                d="M10 10c12 2 31 13 57 9 25-4 39-30 66-28 28 2 39 40 67 38s39-50 67-49c27 1 39 54 66 54 28 0 39-53 67-53s39 52 67 54c27 2 39-48 66-44 28 4 39 63 67 64s39-60 67-60c27 0 41 56 66 59 26 3 45-35 57-44M10 675c12 2 31 13 57 9 25-4 39-30 66-28 28 2 39 40 67 38s39-50 67-49c27 1 39 54 66 54 28 0 39-53 67-53s39 52 67 54c27 2 39-48 66-44 28 4 39 63 67 64s39-60 67-60c27 0 41 56 66 59 26 3 45-35 57-44" />
            <path
                d="M10 640c12 2 31 13 57 9 25-4 39-30 66-28 28 2 39 40 67 38s39-50 67-49c27 1 39 54 66 54 28 0 39-53 67-53s39 52 67 54c27 2 39-48 66-44 28 4 39 63 67 64s39-60 67-60c27 0 41 56 66 59 26 3 45-35 57-44" />
            <path
                d="M10 605c12 2 31 13 57 9 25-4 39-30 66-28 28 2 39 40 67 38s39-50 67-49c27 1 39 54 66 54 28 0 39-53 67-53s39 52 67 54c27 2 39-48 66-44 28 4 39 63 67 64s39-60 67-60c27 0 41 56 66 59 26 3 45-35 57-44" />
            <path
                d="M10 570c12 2 31 13 57 9 25-4 39-30 66-28 28 2 39 40 67 38s39-50 67-49c27 1 39 54 66 54 28 0 39-53 67-53s39 52 67 54c27 2 39-48 66-44 28 4 39 63 67 64s39-60 67-60c27 0 41 56 66 59 26 3 45-35 57-44" />
            <path
                d="M10 535c12 2 31 13 57 9 25-4 39-30 66-28 28 2 39 40 67 38s39-50 67-49c27 1 39 54 66 54 28 0 39-53 67-53s39 52 67 54c27 2 39-48 66-44 28 4 39 63 67 64s39-60 67-60c27 0 41 56 66 59 26 3 45-35 57-44" />
            <path
                d="M10 500c12 2 31 13 57 9 25-4 39-30 66-28 28 2 39 40 67 38s39-50 67-49c27 1 39 54 66 54 28 0 39-53 67-53s39 52 67 54c27 2 39-48 66-44 28 4 39 63 67 64s39-60 67-60c27 0 41 56 66 59 26 3 45-35 57-44" />
            <path
                d="M10 465c12 2 31 13 57 9 25-4 39-30 66-28 28 2 39 40 67 38s39-50 67-49c27 1 39 54 66 54 28 0 39-53 67-53s39 52 67 54c27 2 39-48 66-44 28 4 39 63 67 64s39-60 67-60c27 0 41 56 66 59 26 3 45-35 57-44" />
            <path
                d="M10 430c12 2 31 13 57 9 25-4 39-30 66-28 28 2 39 40 67 38s39-50 67-49c27 1 39 54 66 54 28 0 39-53 67-53s39 52 67 54c27 2 39-48 66-44 28 4 39 63 67 64s39-60 67-60c27 0 41 56 66 59 26 3 45-35 57-44" />
            <path
                d="M10 395c12 2 31 13 57 9 25-4 39-30 66-28 28 2 39 40 67 38s39-50 67-49c27 1 39 54 66 54 28 0 39-53 67-53s39 52 67 54c27 2 39-48 66-44 28 4 39 63 67 64s39-60 67-60c27 0 41 56 66 59 26 3 45-35 57-44" />
            <path
                d="M10 360c12 2 31 13 57 9 25-4 39-30 66-28 28 2 39 40 67 38s39-50 67-49c27 1 39 54 66 54 28 0 39-53 67-53s39 52 67 54c27 2 39-48 66-44 28 4 39 63 67 64s39-60 67-60c27 0 41 56 66 59 26 3 45-35 57-44" />
            <path
                d="M10 325c12 2 31 13 57 9 25-4 39-30 66-28 28 2 39 40 67 38s39-50 67-49c27 1 39 54 66 54 28 0 39-53 67-53s39 52 67 54c27 2 39-48 66-44 28 4 39 63 67 64s39-60 67-60c27 0 41 56 66 59 26 3 45-35 57-44" />
            <path
                d="M10 290c12 2 31 13 57 9 25-4 39-30 66-28 28 2 39 40 67 38s39-50 67-49c27 1 39 54 66 54 28 0 39-53 67-53s39 52 67 54c27 2 39-48 66-44 28 4 39 63 67 64s39-60 67-60c27 0 41 56 66 59 26 3 45-35 57-44" />
            <path
                d="M10 255c12 2 31 13 57 9 25-4 39-30 66-28 28 2 39 40 67 38s39-50 67-49c27 1 39 54 66 54 28 0 39-53 67-53s39 52 67 54c27 2 39-48 66-44 28 4 39 63 67 64s39-60 67-60c27 0 41 56 66 59 26 3 45-35 57-44" />
            <path
                d="M10 220c12 2 31 13 57 9 25-4 39-30 66-28 28 2 39 40 67 38s39-50 67-49c27 1 39 54 66 54 28 0 39-53 67-53s39 52 67 54c27 2 39-48 66-44 28 4 39 63 67 64s39-60 67-60c27 0 41 56 66 59 26 3 45-35 57-44" />
            <path
                d="M10 185c12 2 31 13 57 9 25-4 39-30 66-28 28 2 39 40 67 38s39-50 67-49c27 1 39 54 66 54 28 0 39-53 67-53s39 52 67 54c27 2 39-48 66-44 28 4 39 63 67 64s39-60 67-60c27 0 41 56 66 59 26 3 45-35 57-44" />
            <path
                d="M10 150c12 2 31 13 57 9 25-4 39-30 66-28 28 2 39 40 67 38s39-50 67-49c27 1 39 54 66 54 28 0 39-53 67-53s39 52 67 54c27 2 39-48 66-44 28 4 39 63 67 64s39-60 67-60c27 0 41 56 66 59 26 3 45-35 57-44" />
            <path
                d="M10 115c12 2 31 13 57 9 25-4 39-30 66-28 28 2 39 40 67 38s39-50 67-49c27 1 39 54 66 54 28 0 39-53 67-53s39 52 67 54c27 2 39-48 66-44 28 4 39 63 67 64s39-60 67-60c27 0 41 56 66 59 26 3 45-35 57-44" />
            <path
                d="M10 80c12 2 31 13 57 9 25-4 39-30 66-28 28 2 39 40 67 38s39-50 67-49c27 1 39 54 66 54 28 0 39-53 67-53s39 52 67 54c27 2 39-48 66-44 28 4 39 63 67 64s39-60 67-60c27 0 41 56 66 59 26 3 45-35 57-44" />
            <path
                d="M10 45c12 2 31 13 57 9 25-4 39-30 66-28 28 2 39 40 67 38s39-50 67-49c27 1 39 54 66 54 28 0 39-53 67-53s39 52 67 54c27 2 39-48 66-44 28 4 39 63 67 64s39-60 67-60c27 0 41 56 66 59 26 3 45-35 57-44" />
        </g>
    </defs>
    <rect fill="url(#waves)" width="800" height="800" />
</svg>